#!OML:ASF I:\Actors\actors\Patient Classification 1\Patient 1\Session 1\Subject1.ASF
:FULLY-SPECIFIED
:DEGREES
838
root 0.333039 17.6316 8.49023 25.9361 9.8672 -9.1377
lowerback 14.4305 0.321287 3.56852
upperback -2.24927 1.25549 1.684
thorax -10.5498 0.442685 -0.483538
lowerneck -7.98437 -1.55963 3.66924
upperneck -1.21291 -2.4922 6.18915
head 0.998602 -1.14665 1.23298
rclavicle -3.77691e-015 -1.51076e-014
rhumerus 7.00294 45.7618 -60.6412
rradius 100.248
rwrist -10.5337
rhand 33.9305 -61.0049
rfingers 7.12502
rthumb 57.2017 -77.4217
lclavicle -3.77691e-015 -1.51076e-014
lhumerus 21.845 -59.383 35.435
lradius 88.8267
lwrist -0.679942
lhand -26.2101 -2.26709
lfingers 7.12502
lthumb 0.342806 27.7124
rfemur -23.5507 38.5317 9.65772
rtibia -0.368259
rfoot -26.824 -47.2266
rtoes 22.3503
lfemur -35.0703 -58.7392 25.4372
ltibia -3.73612
lfoot -43.2781 66.0025
ltoes 24.4379
839
root 0.330808 17.63 8.48782 25.9422 9.89556 -9.22213
lowerback 14.2956 0.298256 3.62916
upperback -2.25564 1.23444 1.73641
thorax -10.4792 0.432129 -0.454762
lowerneck -8.20633 -1.53427 3.59408
upperneck -1.00619 -2.48094 6.31866
head 1.10676 -1.12701 1.28607
rclavicle -5.96354e-016 9.93923e-015
rhumerus 8.75956 46.8708 -58.4096
rradius 100.18
rwrist -11.7693
rhand 32.7477 -60.5039
rfingers 7.12502
rthumb 56.1589 -77.7698
lclavicle -5.96354e-016 9.93923e-015
lhumerus 21.8563 -59.4228 35.4683
lradius 88.792
lwrist -0.787456
lhand -26.376 -2.50182
lfingers 7.12502
lthumb 0.182556 27.4778
rfemur -23.5623 38.4682 9.78147
rtibia -0.364559
rfoot -26.7597 -47.1497
rtoes 22.4271
lfemur -35.0112 -58.7255 25.5241
ltibia -3.81584
lfoot -43.7334 65.8749
ltoes 24.7956
840
root 0.329853 17.6292 8.48287 25.8919 9.91191 -9.23013
lowerback 14.2661 0.280423 3.64461
upperback -2.24823 1.21615 1.78048
thorax -10.4552 0.424581 -0.411243
lowerneck -8.30938 -1.51807 3.43991
upperneck -0.915099 -2.45949 6.43359
head 1.15851 -1.10866 1.34921
rclavicle -1.72943e-014 -3.69739e-014
rhumerus 9.42984 47.2744 -57.552
rradius 100.162
rwrist -12.3277
rhand 32.2395 -60.4369
rfingers 7.12502
rthumb 55.7083 -78.0505
lclavicle -1.72943e-014 -3.69739e-014
lhumerus 21.9605 -59.4654 35.4872
lradius 88.7425
lwrist -0.86733
lhand -26.5393 -2.67893
lfingers 7.12502
lthumb 0.0248824 27.3008
rfemur -23.4922 38.3835 9.85689
rtibia -0.379539
rfoot -26.6192 -47.1208
rtoes 22.4181
lfemur -34.9388 -58.7759 25.498
ltibia -3.86765
lfoot -43.9823 65.8068
ltoes 24.9847
841
root 0.328329 17.6269 8.47484 25.8316 9.91569 -9.21287
lowerback 14.2944 -0.063355 3.48643
upperback -2.06323 0.762004 2.16115
thorax -10.2886 0.235108 0.193432
lowerneck -9.08836 -1.16653 2.41288
upperneck -0.626917 -1.95572 6.64313
head 1.39893 -0.827961 1.61123
rclavicle -2.28602e-014 -2.50469e-014
rhumerus 11.294 48.1552 -56.0872
rradius 100.108
rwrist -12.5509
rhand 32.1787 -60.5111
rfingers 7.12502
rthumb 55.6543 -78.1657
lclavicle -2.28602e-014 -2.50469e-014
lhumerus 20.4412 -58.5388 36.9655
lradius 88.6432
lwrist -0.981558
lhand -26.6557 -2.67718
lfingers 7.12502
lthumb -0.0875731 27.3025
rfemur -23.4211 38.2439 9.92729
rtibia -0.369432
rfoot -26.364 -47.0524
rtoes 22.2741
lfemur -34.9209 -58.817 25.4729
ltibia -3.87857
lfoot -43.6468 65.8874
ltoes 24.7899
842
root 0.326086 17.6232 8.46706 25.7727 9.93763 -9.25056
lowerback 14.2905 -0.167119 3.50905
upperback -2.00102 0.638951 2.2996
thorax -10.222 0.181235 0.35817
lowerneck -9.31112 -1.06249 2.00384
upperneck -0.579444 -1.79072 6.77766
head 1.45837 -0.736936 1.73337
rclavicle -7.95139e-016 6.0033e-014
rhumerus 11.3158 48.1027 -56.3571
rradius 100.034
rwrist -12.0677
rhand 32.6309 -60.6552
rfingers 7.12502
rthumb 56.0554 -78.0019
lclavicle -7.95139e-016 6.0033e-014
lhumerus 20.2951 -58.3072 37.2153
lradius 88.5988
lwrist -0.963923
lhand -26.5042 -2.62137
lfingers 7.12502
lthumb 0.0587534 27.3584
rfemur -23.3621 38.1907 10.0385
rtibia -0.35963
rfoot -26.25 -47.009
rtoes 22.2506
lfemur -34.9047 -58.8421 25.5135
ltibia -3.88032
lfoot -43.3446 65.9807
ltoes 24.5666
843
root 0.321614 17.6201 8.46028 25.7263 9.96863 -9.32282
lowerback 14.2632 -0.167686 3.52752
upperback -2.00198 0.645867 2.35652
thorax -10.2079 0.185634 0.407795
lowerneck -9.32821 -1.06374 2.07748
upperneck -0.546191 -1.80098 6.68725
head 1.46973 -0.742765 1.69081
rclavicle -1.03368e-014 -1.11319e-014
rhumerus 9.53359 47.1771 -58.6749
rradius 99.9587
rwrist -10.7379
rhand 33.7974 -61.04
rfingers 7.12502
rthumb 57.0847 -77.5552
lclavicle -1.03368e-014 -1.11319e-014
lhumerus 20.4173 -58.318 37.2486
lradius 88.5985
lwrist -0.931493
lhand -26.1513 -2.53519
lfingers 7.12502
lthumb 0.399606 27.4442
rfemur -23.3339 38.1936 10.1695
rtibia -0.337401
rfoot -26.2259 -46.998
rtoes 22.2357
lfemur -34.8854 -58.8434 25.6068
ltibia -3.89618
lfoot -43.4281 65.9818
ltoes 24.6509
844
root 0.315806 17.619 8.45394 25.683 9.95002 -9.35347
lowerback 14.2684 -0.155145 3.46399
upperback -2.01038 0.654829 2.38543
thorax -10.2209 0.194425 0.473093
lowerneck -9.37607 -1.0605 2.36095
upperneck -0.514467 -1.82462 6.42622
head 1.48014 -0.75867 1.55589
rclavicle -1.72943e-014 3.57812e-014
rhumerus 9.52535 47.2226 -58.745
rradius 99.8925
rwrist -10.6309
rhand 33.8023 -60.9525
rfingers 7.12502
rthumb 57.0891 -77.4641
lclavicle -1.72943e-014 3.57812e-014
lhumerus 20.3843 -58.2991 37.4162
lradius 88.5902
lwrist -0.957198
lhand -25.9687 -2.59224
lfingers 7.12502
lthumb 0.575962 27.3867
rfemur -23.3185 38.1981 10.2432
rtibia -0.306131
rfoot -26.1822 -46.9631
rtoes 22.1329
lfemur -34.7991 -58.8407 25.581
ltibia -3.90241
lfoot -43.9254 65.8264
ltoes 25.0992
845
root 0.312565 17.6187 8.44716 25.6501 9.92049 -9.34869
lowerback 14.2689 -0.14876 3.42167
upperback -2.01159 0.656163 2.38857
thorax -10.2229 0.197604 0.500096
lowerneck -9.48376 -1.07197 2.41465
upperneck -0.463617 -1.85414 6.42512
head 1.51561 -0.769841 1.54521
rclavicle -1.55052e-014 -2.94201e-014
rhumerus 10.7901 47.8777 -57.2155
rradius 99.832
rwrist -11.3971
rhand 33.1704 -60.5575
rfingers 7.12502
rthumb 56.5324 -77.5265
lclavicle -1.55052e-014 -2.94201e-014
lhumerus 20.411 -58.293 37.5097
lradius 88.5369
lwrist -1.02693
lhand -26.1336 -2.9059
lfingers 7.12502
lthumb 0.416749 27.0734
rfemur -23.3143 38.1976 10.2474
rtibia -0.298288
rfoot -26.1205 -46.9366
rtoes 21.9833
lfemur -34.7519 -58.8452 25.5246
ltibia -3.87382
lfoot -44.3697 65.6789
ltoes 25.4579
846
root 0.311333 17.6184 8.4397 25.6512 9.94037 -9.33987
lowerback 14.1933 -0.171094 3.43352
upperback -1.99533 0.624933 2.40119
thorax -10.1614 0.183218 0.513656
lowerneck -9.5778 -1.09808 2.18979
upperneck -0.401513 -1.88051 6.70393
head 1.56174 -0.772774 1.67413
rclavicle -1.98785e-014 1.19271e-015
rhumerus 9.75328 47.2543 -58.6462
rradius 99.8295
rwrist -10.8342
rhand 33.6634 -60.6459
rfingers 7.12502
rthumb 56.9669 -77.2594
lclavicle -1.98785e-014 1.19271e-015
lhumerus 20.4883 -58.2659 37.5155
lradius 88.4698
lwrist -1.11736
lhand -26.4746 -3.01297
lfingers 7.12502
lthumb 0.0873236 26.9668
rfemur -23.344 38.1563 10.2269
rtibia -0.305261
rfoot -26.0583 -46.9273
rtoes 21.8744
lfemur -34.855 -58.8432 25.6065
ltibia -3.85522
lfoot -44.2311 65.7548
ltoes 25.2363
